<?xml version="1.0" encoding="iso-8859-1"?>
<!-- Generator: Adobe Illustrator 18.1.1, SVG Export Plug-In . SVG Version: 6.00 Build 0)  -->
<svg version="1.1" id="Capa_1" xmlns="http://www.w3.org/2000/svg" xmlns:xlink="http://www.w3.org/1999/xlink" x="0px" y="0px"
	 viewBox="0 0 28 28" style="enable-background:new 0 0 28 28;" xml:space="preserve">
<g>
	<g>
		<polygon style="fill:#010002;" points="0,8 0,20 8,20 14,26 14,2 8,8 		"/>
		<path style="fill:#010002;" d="M23.312,2.687l-1.445,1.447c2.515,2.531,4.07,6.017,4.07,9.867c0,3.851-1.557,7.336-4.07,9.867
			l1.445,1.446C26.209,22.418,28,18.418,28,14S26.209,5.582,23.312,2.687z"/>
		<path style="fill:#010002;" d="M20.516,5.547l-1.414,1.415C20.893,8.77,22,11.255,22,14s-1.107,5.23-2.898,7.038l1.414,1.414
			C22.668,20.283,24,17.298,24,14S22.668,7.717,20.516,5.547z"/>
		<path style="fill:#010002;" d="M17.688,8.376l-1.414,1.415C17.34,10.873,18,12.359,18,14s-0.66,3.126-1.729,4.21l1.414,1.414
			C19.116,18.18,20,16.193,20,14S19.116,9.82,17.688,8.376z"/>
	</g>
</g>
<g>
</g>
<g>
</g>
<g>
</g>
<g>
</g>
<g>
</g>
<g>
</g>
<g>
</g>
<g>
</g>
<g>
</g>
<g>
</g>
<g>
</g>
<g>
</g>
<g>
</g>
<g>
</g>
<g>
</g>
</svg>
